<?xml version="1.0" encoding="UTF-8" standalone="no"?>
<!-- Created with Inkscape (http://www.inkscape.org/) -->

<svg
   xmlns:dc="http://purl.org/dc/elements/1.1/"
   xmlns:cc="http://creativecommons.org/ns#"
   xmlns:rdf="http://www.w3.org/1999/02/22-rdf-syntax-ns#"
   xmlns:svg="http://www.w3.org/2000/svg"
   xmlns="http://www.w3.org/2000/svg"
   xmlns:sodipodi="http://sodipodi.sourceforge.net/DTD/sodipodi-0.dtd"
   xmlns:inkscape="http://www.inkscape.org/namespaces/inkscape"
   width="453.5433"
   height="340.15747"
   id="svg2"
   sodipodi:version="0.32"
   inkscape:version="0.91 r13725"
   sodipodi:docname="bg.svg"
   version="1.0"
   inkscape:export-filename="/Users/KevCaz/Desktop/bg.png"
   inkscape:export-xdpi="200"
   inkscape:export-ydpi="200">
  <defs
     id="defs4" />
  <sodipodi:namedview
     id="base"
     pagecolor="#ffffff"
     bordercolor="#666666"
     borderopacity="1.0"
     inkscape:pageopacity="0.0"
     inkscape:pageshadow="2"
     inkscape:zoom="1.0761588"
     inkscape:cx="315.72222"
     inkscape:cy="122.85643"
     inkscape:document-units="mm"
     inkscape:current-layer="layer1"
     inkscape:window-width="1440"
     inkscape:window-height="851"
     inkscape:window-x="0"
     inkscape:window-y="1"
     width="12.8cm"
     height="9.6cm"
     units="cm"
     showgrid="true"
     grid_units="mm"
     inkscape:object-paths="false"
     inkscape:grid-points="true"
     inkscape:grid-bbox="true"
     inkscape:guide-points="true"
     showguides="true"
     inkscape:guide-bbox="true"
     inkscape:window-maximized="1">
    <sodipodi:guide
       orientation="vertical"
       position="56.476527"
       id="guide3573" />
    <sodipodi:guide
       orientation="horizontal"
       position="11.035643"
       id="guide3579" />
    <sodipodi:guide
       orientation="horizontal"
       position="24.018753"
       id="guide3886" />
    <sodipodi:guide
       orientation="horizontal"
       position="285.62841"
       id="guide3988" />
    <sodipodi:guide
       orientation="horizontal"
       position="303.15561"
       id="guide4081" />
    <inkscape:grid
       id="GridFromPre046Settings"
       type="xygrid"
       originx="0px"
       originy="0px"
       spacingx="2mm"
       spacingy="2mm"
       color="#3f3fff"
       empcolor="#3f3fff"
       opacity="0.15"
       empopacity="0.38"
       empspacing="5" />
  </sodipodi:namedview>
  <metadata
     id="metadata7">
    <rdf:RDF>
      <cc:Work
         rdf:about="">
        <dc:format>image/svg+xml</dc:format>
        <dc:type
           rdf:resource="http://purl.org/dc/dcmitype/StillImage" />
        <dc:title />
      </cc:Work>
    </rdf:RDF>
  </metadata>
  <g
     inkscape:label="Layer 1"
     inkscape:groupmode="layer"
     id="layer1"
     transform="translate(4.149475e-6,-698.0315)">
    <g
       transform="matrix(1.25,0,0,-1.25,-4.149475e-6,1688.0315)"
       inkscape:label="ink_ext_XXXXXX"
       id="g3022">
      <g
         transform="scale(0.1,0.1)"
         id="g3024" />
    </g>
    <g
       id="g4254"
       transform="matrix(0.32537835,0,0,0.27556244,282.25994,989.72983)"
       style="fill:#808080">
      <path
         id="path4242"
         d="M 497.622,2.378 C 492.271,2.378 0,2.378 0,2.378 L 2.378,0 c 0,0 492.271,0 497.622,0 l -2.378,2.378 z"
         inkscape:connector-curvature="0"
         style="fill:#808080" />
      <path
         id="path4244"
         d="m 391.053,11.445 c 0,0 -5.054,-0.446 -5.054,9.364 l 0.027,36.861 c 0,6.54 2.021,8.389 6.243,8.918 1.428,0.178 -0.277,2.061 -0.595,2.378 -0.297,0.297 -8.918,-0.892 -18.431,0 -1.185,0.11 -0.297,-0.892 -0.297,-2.081 0,-1.189 5.351,-0.297 5.351,-6.243 l -0.028,-38.496 c 0,-10.999 -8.323,-10.107 -8.323,-10.107 0,0 -1.188,-2.675 3.567,-2.675 2.081,0 12.337,0.297 17.539,0 1.335,-0.077 1.337,0.297 0.892,0.892 -0.446,0.594 0,1.04 -0.891,1.189 z M 193.52,75.505 c 0.595,-1.486 9.958,-30.767 16.052,-47.265 1.856,-5.027 4.756,-16.052 9.215,-16.647 l 0,-2.08 -17.241,0 c 0,0 -3.27,1.189 0.892,3.27 4.162,2.081 5.351,5.648 2.378,14.863 -2.973,9.215 -11.296,29.429 -11.296,29.429 L 181.332,22.593 c -2.676,-8.026 0.594,-10.404 3.567,-10.404 l 0.965,-2.675 -19.025,0 c -4.756,0 -3.864,2.081 -3.864,2.081 0,0 4.756,0.297 9.215,12.188 l 19.545,52.913 c 1.19,0.593 1.232,0.189 1.785,-1.191 z m 63.652,25.788 c -0.78,2.676 -3.456,2.75 -7.469,2.75 -4.461,0 -10.404,0.892 -10.404,0.892 l 0,-17.836 16.35,0 c 0,0 6.837,0.297 8.323,6.242 1.486,5.945 4.756,1.784 3.27,-2.08 -1.486,-3.865 -1.486,-10.404 -1.486,-10.404 l -4.311,0.445 -35.672,0 c -4.756,0 -2.973,2.973 -2.973,2.973 0,0 7.729,-0.297 7.729,9.81 l 0.028,37.604 c 0,5.945 -4.789,5.788 -5.351,6.837 -1.486,2.774 -0.496,2.378 1.486,2.378 0,0 22.415,-0.594 35.494,0 1.781,0.082 4.162,1.486 5.352,-0.594 1.391,-2.436 2.08,-13.08 2.08,-13.08 0,0 -0.476,-4.798 -3.27,0 -2.698,4.631 -2.676,8.621 -13.08,8.621 -10.404,0 -13.674,-0.595 -13.971,-4.162 -0.298,-3.567 0,-21.403 0,-21.403 0,0 1.188,-1.783 5.053,-1.783 3.865,0 5.945,0 5.945,0 0,0 5.374,0.412 6.54,6.242 0.298,1.486 2.378,-0.595 2.378,-0.595 l 0,-11.891 c 0.002,0 -0.369,-1.561 -2.041,-0.966 m 106.829,-30.99 c -0.595,0.595 -9.958,8.473 -23.93,8.473 -16.944,0 -27.942,-13.972 -33.294,-22.295 -5.351,-8.324 -12.471,-15.83 -12.471,-15.83 -2.896,-3.751 -6.837,-2.378 -6.837,-2.378 0,0 0,20.076 0,22.889 0,-0.594 -0.428,3.406 4.147,4.534 4.654,1.146 1.486,2.973 1.486,2.973 l -19.131,-0.075 c -1.188,0 0,-0.594 0,-1.784 0,-1.189 5.648,-0.297 5.648,-6.242 l -0.029,-39.09 c 0.892,-9.81 -7.729,-10.404 -7.729,-10.404 0,-2.378 1.316,-2.671 4.296,-2.452 7.731,0.565 24.241,0.668 28.105,0.371 6.837,0 12.323,6.466 12.323,13.303 0,9.215 -10.107,14.863 -16.053,14.863 0,0 6.682,4.151 16.053,18.43 9.363,14.269 18.133,17.539 27.199,17.985 3.265,0.16 10.553,-0.298 18.728,-5.054 5.205,-3.028 2.084,1.189 1.489,1.783 z m -67.02,-36.787 c 2.824,-0.297 6.688,-0.965 8.361,-3.046 0,0 2.029,-4.013 2.029,-7.283 0,-3.27 -2.959,-8.398 -8.31,-9.587 l -11.593,0.595 0,18.431 c 0.002,-10e-4 5.079,1.357 9.513,0.89 z M 366.528,8.323 c 0,0 -1.486,0.892 -4.162,0.595 -2.676,-0.297 -8.623,-1.299 -12.485,-1.189 -10.404,0.297 -19.916,8.323 -19.916,16.647 0,8.323 6.539,13.674 16.052,15.755 9.513,2.081 14.863,4.459 14.863,12.782 0,7.134 -7.729,10.107 -13.377,10.107 -5.647,0 -12.852,-4.414 -16.052,-9.215 -2.379,-3.567 -1.784,-6.837 -1.784,-6.837 l -3.121,1.189 c 0,0 1.04,7.432 0.148,10.999 -0.664,2.659 7.135,9.81 19.025,9.81 14.565,0 24.078,-6.837 24.078,-21.105 0,-11.891 -14.565,-14.566 -18.728,-15.458 -4.162,-0.892 -12.485,-3.864 -12.485,-10.702 0,-6.837 7.135,-8.323 12.188,-8.323 5.053,0 8.917,2.081 10.998,5.054 2.081,2.973 2.081,5.648 2.081,5.648 l 2.676,-0.892 c 0,0 -0.893,-6.242 -0.893,-8.323 0.002,-2.38 0.894,-6.244 0.894,-6.542 z m 27.943,3.568 c 0.208,2.091 0,9.81 0,11.296 0,3.865 2.676,1.784 2.973,0 1.527,-9.167 5.945,-7.729 13.08,-7.729 3.567,0 2.973,5.351 2.973,2.973 0,-2.378 0,38.941 0,41.617 0,2.676 -3.864,5.945 -5.648,6.243 -1.783,0.297 -0.892,2.675 -0.892,2.675 l 21.105,0 c 0,0 1.189,-1.783 0.595,-2.081 -1.683,-0.842 -6.242,-1.189 -6.242,-5.351 0,-2.675 0,-39.536 0,-43.4 0,-3.865 3.864,-2.675 7.134,-2.675 5.648,0 7.092,0.846 8.324,8.621 0.32,2.021 2.675,0.594 2.675,-0.595 0,-2.081 0,-7.432 0,-10.999 0,-2.378 -0.595,-2.973 -0.595,-2.973 -1.188,-1.189 -4.161,0.594 -5.945,0.594 -1.783,0 -34.482,0 -34.482,0 -3.866,-1.486 -5.352,-1.189 -5.055,1.784 z M 63.169,113.109 c -1.486,9.215 -9.215,17.241 -15.161,18.431 -4.526,0.904 -12.148,0.357 -10.107,-11.891 0.595,-3.567 2.973,-7.432 5.351,-10.404 7.895,-9.87 22.267,-10.706 19.917,3.864 z m -6.243,-4.162 c -1.486,-2.973 -6.54,-1.486 -10.107,3.271 -4.568,6.09 -5.945,13.674 -1.189,14.269 4.756,0.595 6.54,-2.081 9.512,-5.945 2.972,-3.864 3.865,-7.433 1.784,-11.595 z M 80.262,91.261 c -7.877,6.539 -9.661,13.971 -9.661,13.971 l -4.608,0 1.041,3.271 c 0,0 1.932,-0.298 1.932,0.297 0,0.892 -1.337,6.688 -6.837,16.647 -5.182,9.381 -12.763,11.721 -17.836,11.891 -4.17,0.138 -8.918,-2.081 -8.918,-2.081 l 0,2.973 c 7.134,5.945 19.471,3.121 27.943,-6.243 8.603,-9.51 11.891,-22.889 11.891,-23.187 0,-0.297 0.3,0.142 3.865,0 7.432,-0.297 4.657,6.185 5.351,6.54 0.682,0.349 2.378,-1.783 2.378,-1.783 l 0,-10.404 c 0,0 -1.401,-0.882 -1.486,-0.595 -0.892,2.973 -8.621,2.675 -8.621,2.378 0,0 1.784,-5.648 7.134,-10.701 6.233,-5.889 14.566,-9.513 14.269,-7.432 -0.297,2.08 0,5.053 3.567,5.053 l 0,-10.703 -2.675,0.297 c -7.731,1.487 -13.372,5.361 -18.729,9.811 z m 74.316,-11.297 c -0.892,0.298 -4.162,1.784 -5.945,1.784 -1.784,0 -7.432,-1.486 -13.377,-1.486 -10.702,0 -21.106,2.675 -28.835,13.377 -11.216,15.529 -11.891,34.186 -7.134,49.644 4.756,15.457 22.592,19.619 28.538,19.619 7.432,0 7.134,0 13.971,-4.459 3.521,-2.297 16.647,-7.135 16.647,-7.135 0,0 0,-17.836 0,-21.7 0,-3.864 6.54,-5.351 6.54,-5.351 l 0.297,-2.676 -26.754,0 -0.892,3.271 c 3.864,0 8.918,2.378 8.918,4.459 0,2.081 0,15.755 0,15.755 0,-1.783 0.297,8.323 -12.782,8.323 -21.999,0 -24.971,-16.052 -24.971,-32.104 0,-10.999 3.865,-21.105 9.215,-27.349 5.351,-6.242 15.755,-5.945 24.376,-5.054 8.621,0.893 10.999,14.27 10.999,14.27 l 2.676,-0.893 0.594,-21.402 c 0,-0.001 -1.189,-1.19 -2.081,-0.893 z m 9.512,4.162 c 0,0 5.648,1.486 5.648,3.567 0,2.081 0,37.158 0,37.158 0,10.999 8.324,17.241 22.295,17.241 11.296,0 21.998,-10.404 21.998,-23.187 0,-2.576 0.297,-25.13 0.297,-29.43 0,-3.864 4.162,-5.351 4.162,-5.351 l 0.594,-2.973 -16.052,0 c 0,0 -3.865,2.973 -2.378,2.973 5.648,0 8.026,2.973 8.026,5.054 0,0.297 0,21.403 0,32.104 0,10.701 -11.296,14.566 -16.647,14.566 -5.351,0 -13.08,-4.757 -13.08,-11.594 0,-1.783 0,-30.916 0,-34.78 0,-3.864 5.351,-5.054 5.351,-5.054 l 0.297,-2.973 -19.619,0 c 0,0.003 -3.27,2.976 -0.892,2.679 z m 107.313,-0.297 c 2.237,1.492 6.54,-0.595 6.54,5.647 0,2.973 0,26.754 0,37.158 0,12.188 -5.648,12.485 -5.648,12.485 l 0.595,1.783 c 0,0 26.754,-0.892 34.186,-0.297 4.403,0.352 6.242,0.892 7.134,-0.892 0.893,-1.784 1.486,-14.566 1.486,-14.566 l -1.783,0.298 c 0,0 -1.486,6.837 -7.135,9.215 -3.064,1.289 -14.068,1.563 -16.35,0.892 -5.053,-1.486 -3.566,-2.081 -3.566,-3.864 0,-1.783 0,-34.78 0,-40.131 0,-8.323 5.945,-7.432 5.945,-7.432 l 0.892,-2.378 -20.809,0 c 0,0.001 -2.378,1.487 -1.487,2.082 z m 83.532,25.861 c -5.351,3.865 -10.106,4.459 -21.403,3.271 -1.479,-0.156 -1.188,2.378 -1.188,3.864 0,1.486 0,13.972 0,16.053 0,2.08 2.973,5.351 7.729,5.351 0.298,0 -1.188,2.378 -1.188,2.378 l -20.512,0 c 0,0 -0.892,-1.486 0.595,-2.081 1.487,-0.595 4.161,-1.188 4.459,-4.756 0.297,-3.567 0,-40.429 0,-43.698 0,-1.783 -1.486,-4.756 -5.648,-4.756 l 0.892,-2.676 c 0,0 13.099,0.135 17.836,-0.595 7.729,-1.188 14.438,-0.695 19.917,2.676 3.864,2.378 5.648,7.729 5.945,10.999 0.615,6.808 -3.96,11.461 -7.434,13.97 z m -1.784,-12.484 c 0,-4.757 -4.162,-8.918 -7.729,-9.811 -3.566,-0.892 -12.782,0 -12.782,0 l 0,19.322 c 0,0 -0.295,3.334 10.404,2.973 6.84,-0.231 10.107,-7.728 10.107,-12.484 z m 64.786,43.774 0.02,-2.079 c -1.226,-0.011 -5.314,-0.338 -5.299,-6.877 0.01,-3.271 0.021,-41.11 0.046,-43.998 0.026,-3.334 5.979,-4.409 5.979,-4.409 L 419,81.821 398.789,81.682 398.467,84.06 c 0,0 5.518,0.512 5.518,4.078 0,12.709 0,17.391 0,17.391 l -25.862,0 c -1.486,0 -0.892,-0.892 -0.892,-2.378 0,-1.486 0,-10.999 0,-14.566 0,-3.567 4.162,-3.864 4.162,-3.864 l 0.892,-2.973 -18.728,0 -0.595,2.378 c 0,0 5.647,-0.595 5.945,3.864 0.216,3.262 0,41.617 0,43.995 0,2.081 -1.749,6.54 -5.351,6.838 l -0.298,2.08 c 0,0 16.053,0 18.431,0 0.297,0 2.676,-2.08 -0.595,-2.973 -2.45,-0.669 -4.161,-2.378 -4.161,-6.242 0,-3.864 0,-19.619 0,-20.809 0,-1.19 0.297,-0.892 1.783,-0.892 1.486,0 24.971,0 24.971,0 0,0 0,19.322 0,21.997 0,5.945 -2.901,5.753 -4.162,6.54 -1.783,1.115 -1.621,2.123 0,2.378 1.412,0.225 18.412,0.078 18.412,0.078 z M 62.426,23.187 l 0,40.726 c 0,10.701 -8.324,17.241 -20.214,17.241 -11.89,0 -20.214,-7.729 -20.214,-20.809 l 0,-37.158 c 0,-13.08 6.571,-10.735 7.283,-12.039 0.892,-1.635 1.041,-1.932 -0.149,-2.229 0,0 -15.012,0.892 -26.011,0 0,0 -3.321,2.349 -1.189,2.527 8.489,0.706 8.77,4.756 8.77,12.931 l 0,42.211 c 0,0 -0.892,22.592 28.834,22.592 12.485,0 19.917,-5.054 23.781,-10.107 0,0 6.243,-6.242 6.243,-15.16 l 0,-41.023 0.025,-0.224 c 0,-13.08 6.571,-10.438 7.283,-11.742 0.892,-1.635 1.04,-1.932 -0.149,-2.229 0,0 -13.996,-0.172 -25.416,0 0,0 -3.321,2.35 -1.189,2.527 8.489,0.707 12.336,3.716 12.336,11.891 l -0.024,0.074 z m 67.698,0.459 c -0.16,-13.079 5.105,-10.503 5.801,-11.815 0.873,-1.646 1.018,-1.946 -0.175,-2.229 0,0 -5.936,0.896 -16.945,0.138 0,0 -3.292,2.389 -1.158,2.541 8.498,0.603 7.922,3.668 8.022,11.843 l -0.075,29.68 C 124.256,54.547 96.611,13.227 96.611,13.227 l -2.65,-3.865 c 0,0 -1.486,0.595 -12.485,-0.297 0,0 -3.321,2.349 -1.189,2.527 8.489,0.706 7.729,3.716 7.729,11.891 l -0.025,8.472 0.048,23.162 c -0.143,13.08 -6.09,10.365 -6.816,11.663 -0.91,1.625 -1.062,1.92 0.125,2.23 0,0 6.994,-0.734 17.983,0.279 0,0 3.346,-2.313 1.216,-2.513 -8.482,-0.8 -7.835,-3.852 -7.747,-12.027 l -0.054,-29.78 c 0,0 28.463,35.968 31.51,46.374 0,0 0.743,2.601 2.378,0.743 1.212,-1.379 1.575,-1.071 2.452,-1.635 1.041,-0.67 1.041,-1.116 1.115,-2.378 l -0.077,-44.427 z m 110.661,13.81 c 1.486,-0.892 7.432,-1.486 10.998,-1.784 3.567,-0.297 5.945,4.162 6.243,6.54 0.297,2.378 2.607,0.605 2.378,-0.892 -0.595,-3.864 0,-9.215 0,-12.188 0,-2.081 -1.783,-1.486 -2.378,-0.594 -1.189,1.784 -2.676,2.973 -5.945,3.567 -3.271,0.595 -11.296,1.189 -11.296,1.189 l -0.298,-0.892 0,-17.836 16.35,0 c 0,0 7.089,0.393 8.918,6.243 1.486,4.756 3.271,1.189 2.676,-2.081 -0.741,-4.073 -1.486,-10.404 -1.486,-10.404 l -4.311,0.446 -35.672,0 c -2.676,0 -2.973,2.675 -2.973,2.675 0,0 7.729,-0.297 7.729,9.81 l 0.029,37.901 c 0,5.945 -6.243,5.351 -6.243,6.54 0,1.189 1.189,2.675 2.378,2.675 0,0 33.712,0 35.495,0 1.783,0 5.054,1.783 5.351,-0.595 0.348,-2.783 2.081,-13.08 2.081,-13.08 0,0 0.051,-3.056 -2.676,0 -1.193,1.336 -1.783,8.323 -13.674,8.621 -10.402,0.259 -13.674,-0.594 -13.972,-4.162 -0.297,-3.567 0,-21.403 0,-21.403 l 0.298,-0.296 z m 238.703,31.807 c 2.824,0 1.933,-0.297 2.824,-1.337 0.893,-1.041 0,-1.486 -1.635,-1.338 -1.635,0.148 -4.311,-0.743 -4.459,-5.202 -0.148,-4.459 0,-17.093 0,-17.093 0.892,-1.486 8.918,-15.458 12.188,-21.7 l 1.777,-3.066 c 1.737,-3 2.271,-5.803 5.499,-6.242 0.896,-0.122 0.859,-0.386 2.378,-0.892 0.893,-0.297 1.784,-2.378 0.595,-2.378 -2.234,0 -16.646,0 -17.984,0 -0.595,0 -3.257,0.824 -1.04,1.932 0.594,0.297 2.759,-0.181 4.459,1.189 0.775,0.626 2.385,3.66 1.047,6.187 l -11.891,19.322 c 0,0 -9.513,-16.944 -11.296,-19.917 -1.784,-2.973 -1.446,-5.209 1.783,-5.648 0.896,-0.123 0.859,-0.387 2.378,-0.892 0.893,-0.297 1.784,-2.378 0.595,-2.378 -2.235,0 -19.322,0 -20.659,0 -0.595,0 -3.259,0.823 -1.041,1.933 0.595,0.297 3.567,1.189 4.311,2.378 0.744,1.189 15.755,27.943 17.688,32.253 0.814,1.819 0.696,11.892 0.594,14.863 -0.148,4.31 -1.438,4.756 -3.418,5.351 -1.424,0.427 -2.081,1.041 -2.229,1.932 -0.148,0.892 0.301,0.735 3.716,0.743 5.653,0.012 13.82,0 13.82,0 z M 154.578,20.957 c 0,-9.81 4.905,-8.769 4.905,-8.769 0.892,-0.149 0.594,-1.041 1.041,-1.635 0.446,-0.594 0.443,-0.959 -0.892,-0.892 -2.973,0.148 -14.417,0 -16.498,0 l -1.472,-0.075 c -4.756,0 -3.121,2.675 -3.121,2.675 0,0 8.323,-0.892 8.323,10.107 l 0.029,38.496 c 0,5.945 -5.351,5.054 -5.351,6.243 0,1.189 -0.887,2.192 0.297,2.081 9.513,-0.892 18.133,0.297 18.431,0 0.316,-0.318 2.022,-2.2 0.594,-2.378 -4.224,-0.527 -6.242,-2.378 -6.242,-8.918 l -0.044,-36.935 z"
         inkscape:connector-curvature="0"
         style="fill:#808080" />
      <path
         id="path4246"
         d="m 417.063,149.821 c -9.967,0 -252.081,0 -252.081,0 l 2.378,-2.378 c 0,0 246.73,0 252.081,0 l -2.378,2.378 z"
         inkscape:connector-curvature="0"
         style="fill:#808080" />
    </g>
  </g>
</svg>
